<?xml version="1.0" ?><svg height="32" id="svg8" version="1.1" viewBox="0 0 8.4666665 8.4666669" width="32" xmlns="http://www.w3.org/2000/svg" xmlns:cc="http://creativecommons.org/ns#" xmlns:dc="http://purl.org/dc/elements/1.1/" xmlns:inkscape="http://www.inkscape.org/namespaces/inkscape" xmlns:rdf="http://www.w3.org/1999/02/22-rdf-syntax-ns#" xmlns:sodipodi="http://sodipodi.sourceforge.net/DTD/sodipodi-0.dtd" xmlns:svg="http://www.w3.org/2000/svg"><defs id="defs2"/><g id="layer1" transform="translate(0,-288.53332)"><path d="m 6.3500042,290.05626 0,1.50897" id="path7915" style="fill:none;fill-rule:evenodd;stroke:#ffffff;stroke-width:0.26458335px;stroke-linecap:butt;stroke-linejoin:miter;stroke-opacity:1"/><path d="m 5.2916709,288.79978 0,0.97801 a 0.26458334,0.26452258 0 0 0 0.044437,0.14671 l 0.4847299,0.72694 0.066146,0.79357" id="path7884" style="fill:none;fill-rule:evenodd;stroke:#ffffff;stroke-width:0.26458335px;stroke-linecap:round;stroke-linejoin:round;stroke-opacity:1"/><path d="m 4.82865,292.56922 -0.3085915,0.19838 c -0.086259,0.0554 -0.2033217,0.0228 -0.2800032,-0.0455 -0.1166575,-0.10366 -0.3499697,-0.31099 -0.3499697,-0.31099 -0.073626,-0.0654 -0.1047988,-0.16635 -0.080904,-0.26189 l 0.2257187,-0.90265 -1.8520834,1.7194 0.79375,0.0661 0.7937501,-0.72741" id="path7901" style="fill:none;fill-rule:evenodd;stroke:#ffffff;stroke-width:0.26458335px;stroke-linecap:butt;stroke-linejoin:round;stroke-opacity:1"/><path d="m 3.5056989,288.80163 0.1143106,0.79931 a 0.26440078,0.26434006 0 0 1 -0.068924,0.21828 l -0.8481033,0.90368 a 0.26458334,0.26452258 0 0 0 -0.068972,0.14357 l -0.1204648,0.84235 0.5952913,0.39643" id="path7887" style="fill:none;fill-rule:evenodd;stroke:#ffffff;stroke-width:0.26458332px;stroke-linecap:round;stroke-linejoin:round;stroke-opacity:1"/><path d="m 2.9104208,291.90792 0.2645833,-0.99195" id="path7890" style="fill:none;fill-rule:evenodd;stroke:#ffffff;stroke-width:0.26458335px;stroke-linecap:round;stroke-linejoin:round;stroke-opacity:1"/><path d="m 2.4474,291.64339 -1.1244792,-0.19838 0.396875,-0.52904 0.8598958,0.13227" id="path7894" style="fill:none;fill-rule:evenodd;stroke:#ffffff;stroke-width:0.26458335px;stroke-linecap:butt;stroke-linejoin:round;stroke-opacity:1"/><path d="m 5.4901084,290.05626 0.3307291,-0.2645 0.5953126,0.2645 -0.5953126,0.52906" id="path7897" style="fill:none;fill-rule:evenodd;stroke:#ffffff;stroke-width:0.26458335px;stroke-linecap:butt;stroke-linejoin:round;stroke-opacity:1"/><path d="m 4.9609417,291.31274 2.1828125,0.3968 -0.396875,0.59518 -2.0505209,-0.3968 0,-0.46291 z" id="path7899" style="fill:none;fill-rule:evenodd;stroke:#ffffff;stroke-width:0.26458335px;stroke-linecap:butt;stroke-linejoin:round;stroke-opacity:1"/><path d="m 1.5875041,291.44501 0,4.23235" id="path7903" style="fill:none;fill-rule:evenodd;stroke:#ffffff;stroke-width:0.26458335px;stroke-linecap:butt;stroke-linejoin:miter;stroke-opacity:1"/><path d="m 2.6458375,293.03213 0,3.96786" id="path7905" style="fill:none;fill-rule:evenodd;stroke:#ffffff;stroke-width:0.26458335px;stroke-linecap:butt;stroke-linejoin:miter;stroke-opacity:1"/><path d="m 5.1593792,292.8999 0,4.10009" id="path7908" style="fill:none;fill-rule:evenodd;stroke:#ffffff;stroke-width:0.26458335px;stroke-linecap:butt;stroke-linejoin:miter;stroke-opacity:1"/><path d="m 4.1010458,293.03213 0,2.1162" id="path7911" style="fill:none;fill-rule:evenodd;stroke:#ffffff;stroke-width:0.26458332px;stroke-linecap:butt;stroke-linejoin:miter;stroke-opacity:1"/><path d="m 7.0114626,291.90792 0,3.90171" id="path7913" style="fill:none;fill-rule:evenodd;stroke:#ffffff;stroke-width:0.26458335px;stroke-linecap:butt;stroke-linejoin:miter;stroke-opacity:1"/><path d="m 5.0932334,291.97407 -0.5953126,0.46291 0.1422347,0.0711 c 0.2350506,0.11751 0.5173822,0.0847 0.7192672,-0.0834 l 0.395269,-0.31833" id="path7917" style="fill:none;fill-rule:evenodd;stroke:#ffffff;stroke-width:0.26458335px;stroke-linecap:butt;stroke-linejoin:round;stroke-opacity:1"/><path d="m 6.3500042,292.23857 0,1.81644" id="path7921" style="fill:none;fill-rule:evenodd;stroke:#ffffff;stroke-width:0.26458335px;stroke-linecap:butt;stroke-linejoin:miter;stroke-opacity:1"/></g></svg>
