<?xml version="1.0" ?><!DOCTYPE svg  PUBLIC '-//W3C//DTD SVG 1.0//EN'  'http://www.w3.org/TR/2001/REC-SVG-20010904/DTD/svg10.dtd'><svg enable-background="new 0 0 100 100" height="100px" id="Layer_1" version="1.0" viewBox="0 0 100 100" width="100px" xml:space="preserve" xmlns="http://www.w3.org/2000/svg" xmlns:xlink="http://www.w3.org/1999/xlink"><path d="M80,50  c-4.637-4.637-7.5-11.038-7.5-18.106V17.5C73.566,28.333,76.725,39.2,80,50z" fill="none" stroke="#000000" stroke-linecap="round" stroke-linejoin="round" stroke-miterlimit="10"/><circle cx="53.124" cy="54.998" fill="none" r="1.875" stroke="#000000" stroke-linecap="round" stroke-linejoin="round" stroke-miterlimit="10"/><circle cx="53.124" cy="65" fill="none" r="1.875" stroke="#000000" stroke-linecap="round" stroke-linejoin="round" stroke-miterlimit="10"/><circle cx="53.124" cy="75" fill="none" r="1.875" stroke="#000000" stroke-linecap="round" stroke-linejoin="round" stroke-miterlimit="10"/><polygon fill="none" points="  61.249,73.75 71.25,73.75 73.75,69.998 58.747,69.998 " stroke="#000000" stroke-linecap="round" stroke-linejoin="round" stroke-miterlimit="10"/><path d="M20,50  c4.635-4.637,7.5-11.038,7.5-18.106V17.5C26.432,28.333,23.273,39.2,20,50z" fill="none" stroke="#000000" stroke-linecap="round" stroke-linejoin="round" stroke-miterlimit="10"/><polygon fill="none" points="38.75,73.75   28.75,73.75 26.248,69.998 41.25,69.998 " stroke="#000000" stroke-linecap="round" stroke-linejoin="round" stroke-miterlimit="10"/><path d="M62.499,12.5  c-6.904,6.903-18.096,6.903-25,0c0,11.961,4.176,23.905,12.502,33.501l0,0C58.323,36.406,62.499,24.461,62.499,12.5z" fill="none" stroke="#000000" stroke-linecap="round" stroke-linejoin="round" stroke-miterlimit="10"/><path d="M72.5,31.893  c0,7.068,2.863,13.47,7.5,18.106v30l-20.003,7.5L47.499,80V48.708c10-9.998,15-23.098,15-36.208L72.5,17.5V31.893z" fill="none" stroke="#000000" stroke-linecap="round" stroke-linejoin="round" stroke-miterlimit="10"/><path d="M27.5,31.893V17.5  l9.999-4.999c0,11.961,4.176,23.905,12.502,33.501c-0.803,0.922-1.625,1.831-2.502,2.707V80l2.502,1.498L40,87.5L20,80V50  C24.635,45.363,27.5,38.961,27.5,31.893z" fill="none" stroke="#000000" stroke-linecap="round" stroke-linejoin="round" stroke-miterlimit="10"/><path d="M58.749,47.499H71.25  H58.749z" fill="none" stroke="#000000" stroke-linecap="round" stroke-linejoin="round" stroke-miterlimit="10"/><polygon fill="none" points="65.002,42.5   60.001,47.499 70.004,47.499 " stroke="#000000" stroke-linecap="round" stroke-linejoin="round" stroke-miterlimit="10"/></svg>