<?xml version="1.0" ?><svg style="enable-background:new 0 0 48 48;" version="1.1" viewBox="0 0 48 48" xml:space="preserve" xmlns="http://www.w3.org/2000/svg" xmlns:xlink="http://www.w3.org/1999/xlink"><style type="text/css">
	.Round_x0020_Corners_x0020_2_x0020_pt{fill:#FFFFFF;stroke:#231F20;stroke-miterlimit:10;}
	.Live_x0020_Reflect_x0020_X{fill:none;}
	.Bevel_x0020_Soft{fill:url(#SVGID_1_);}
	.Dusk{fill:#FFFFFF;}
	.Foliage_GS{fill:#FFDD00;}
	.Pompadour_GS{fill-rule:evenodd;clip-rule:evenodd;fill:#44ADE2;}
	.st0{fill:none;stroke:#303030;stroke-width:0.5;stroke-linecap:round;stroke-linejoin:round;stroke-miterlimit:10;}
	.st1{fill:#303030;stroke:#303030;stroke-width:0.5;stroke-linecap:round;stroke-linejoin:round;stroke-miterlimit:10;}
	.st2{fill:none;stroke:#303030;stroke-width:0.4;stroke-linecap:round;stroke-linejoin:round;stroke-miterlimit:10;}
	.st3{fill:#303030;}
	.st4{fill:none;}
</style><linearGradient gradientUnits="userSpaceOnUse" id="SVGID_1_" x1="-174" x2="-173.29289" y1="-290" y2="-289.29288"><stop offset="0" style="stop-color:#DEDFE3"/><stop offset="0.17833" style="stop-color:#DADBDF"/><stop offset="0.36114" style="stop-color:#CECFD3"/><stop offset="0.54604" style="stop-color:#B9BCBF"/><stop offset="0.7324" style="stop-color:#9CA0A2"/><stop offset="0.91815" style="stop-color:#787D7E"/><stop offset="1" style="stop-color:#656B6C"/></linearGradient><g id="Padding__x26__Artboard"/><g id="Icons"><g><path class="st0" d="M32.50116,12.51424v0.71875v5.71875l-0.84375,0.84375v2.15625h-1.96875l-1.03125,0.96875v2.21875    c0,0-1.6875,3.15625-6,2.4375c0,0-1.875-0.625-1.8125-2.53125l-0.6875,0.625c-0.03997,0.03634-0.31219,0.00234-0.36696,0.00533    c-0.31146,0.01699-0.62296,0.06258-0.92541,0.13903c-0.6868,0.1736-1.73204,0.64159-1.90528,1.41928    c-0.02936,0.13179-0.0244,0.26867-0.01377,0.40327c0.04947,0.62629,0.20871,1.26668,0.52388,1.81425    c0.34724,0.60328,0.01671,0.99811-0.35946,1.45195c-0.44752,0.53993-0.7439,1.17472-0.80146,1.87985    c-0.02314,0.28345-0.00458,0.58393,0.14442,0.82617c0.0878,0.14274,0.22192,0.27071,0.23372,0.43789    c0.0076,0.10784-0.03867,0.21173-0.08924,0.30729c-0.35213,0.66529-0.97009,1.07192-1.51228,1.56583    c-1.77304,1.61517-4.33474,0.96512-5.3969-1.06264c-1.71875-3.28125-0.34375-7.1875,1.5625-10.03125s2.40625-5.25,2.125-6.28125    c0,0,4.8125-1.03125,6.375-5.125l0.96875-0.34375l0.59375-0.59375L32.50116,12.51424z"/><polyline class="st0" points="32.59491,13.20174 39.09491,13.20174 39.09491,13.73299 39.09491,16.16038 38.08449,16.13924     38.09491,18.10799 32.62616,18.10799   "/><polyline class="st0" points="34.28241,13.20174 36.03241,11.17049 36.65741,11.17049 38.15741,11.17049 38.84491,11.17049     38.84491,13.13924   "/><path class="st0" d="M28.65741,22.92049c0,0-1.625-1.59375-4.1875-1.15625s-3.625,3.28125-3.625,3.28125    c-1.5625-6.71875-7.09375-6.5-7.1875-6.5"/><path class="st0" d="M23.90741,22.04549c0,0-1.0625,3.34375,1.78125,4.3125c0,0-3.375-0.09375-3.1875-3.625"/><polyline class="st0" points="22.49866,18.31299 22.49866,19.03299 29.68866,19.03299 29.68866,13.21299 22.49866,13.21299     22.49866,13.93299   "/><path class="st0" d="M22.49869,13.933V18.313c-0.76001-0.06006-1.37-1.01001-1.37-2.19    C21.1287,14.94294,21.73868,13.99299,22.49869,13.933z"/><line class="st0" x1="32.62616" x2="38.08449" y1="16.13924" y2="16.13924"/><line class="st0" x1="29.75116" x2="32.31366" y1="15.60799" y2="15.60799"/><path class="st0" d="M19.15741,14.45174l-0.84375-0.4375l-0.5625,0.03125l-0.3125,0.65625c0,0-2.1875-0.75-3.40625-0.53125    l-0.0625,0.40625c0,0,2.25-0.09375,2.71875,1.28125c0,0-0.21875,0.84375-0.84375,0.90625s-0.28125,0.84375-0.28125,0.84375"/><circle class="st3" cx="21.23553" cy="22.59236" r="0.26563"/><circle class="st3" cx="28.23553" cy="21.59236" r="0.26563"/><circle class="st3" cx="15.23553" cy="20.59236" r="0.26563"/><circle class="st3" cx="10.23553" cy="32.59236" r="0.26563"/><circle class="st3" cx="11.81366" cy="25.98299" r="0.26563"/><polyline class="st0" points="28.59491,12.42049 27.90741,11.85799 21.68866,11.85799 21.06366,11.35799 19.62616,11.35799     19.18866,12.32674 19.75116,13.42049   "/></g></g></svg>