<?xml version="1.0" encoding="utf-8"?>
<!-- Generator: Adobe Illustrator 22.0.0, SVG Export Plug-In . SVG Version: 6.00 Build 0)  -->
<svg version="1.1" id="Layer_1" xmlns="http://www.w3.org/2000/svg" xmlns:xlink="http://www.w3.org/1999/xlink" x="0px" y="0px"
	 viewBox="0 0 100 100" style="enable-background:new 0 0 100 100;" xml:space="preserve">
<style type="text/css">
	.st0{fill:none;stroke:#FFFFFF;stroke-linecap:round;stroke-linejoin:round;stroke-miterlimit:10;}
</style>
<path class="st0" d="M80,50c-4.6-4.6-7.5-11-7.5-18.1V17.5C73.6,28.3,76.7,39.2,80,50z"/>
<circle class="st0" cx="53.1" cy="55" r="1.9"/>
<circle class="st0" cx="53.1" cy="65" r="1.9"/>
<circle class="st0" cx="53.1" cy="75" r="1.9"/>
<polygon class="st0" points="61.2,73.8 71.3,73.8 73.8,70 58.7,70 "/>
<path class="st0" d="M20,50c4.6-4.6,7.5-11,7.5-18.1V17.5C26.4,28.3,23.3,39.2,20,50z"/>
<polygon class="st0" points="38.8,73.8 28.8,73.8 26.2,70 41.3,70 "/>
<path class="st0" d="M62.5,12.5c-6.9,6.9-18.1,6.9-25,0c0,12,4.2,23.9,12.5,33.5l0,0C58.3,36.4,62.5,24.5,62.5,12.5z"/>
<path class="st0" d="M72.5,31.9c0,7.1,2.9,13.5,7.5,18.1v30l-20,7.5L47.5,80V48.7c10-10,15-23.1,15-36.2l10,5V31.9z"/>
<path class="st0" d="M27.5,31.9V17.5l10-5c0,12,4.2,23.9,12.5,33.5c-0.8,0.9-1.6,1.8-2.5,2.7V80l2.5,1.5l-10,6L20,80V50
	C24.6,45.4,27.5,39,27.5,31.9z"/>
<path class="st0" d="M58.7,47.5h12.5H58.7z"/>
<polygon class="st0" points="65,42.5 60,47.5 70,47.5 "/>
</svg>
