<?xml version="1.0" encoding="utf-8"?>
<!-- Generator: Adobe Illustrator 22.0.0, SVG Export Plug-In . SVG Version: 6.00 Build 0)  -->
<svg version="1.1" id="Layer_1" xmlns="http://www.w3.org/2000/svg" xmlns:xlink="http://www.w3.org/1999/xlink" x="0px" y="0px"
	 viewBox="0 0 48 48" style="enable-background:new 0 0 48 48;" xml:space="preserve">
<style type="text/css">
	.st0{fill:none;stroke:#FFFFFF;stroke-width:0.5;stroke-linecap:round;stroke-linejoin:round;stroke-miterlimit:10;}
	.st1{fill:#FFFFFF;}
</style>
<g id="Padding__x26__Artboard">
</g>
<g id="Icons">
	<g>
		<path class="st0" d="M32.5,12.5v0.7V19l-0.8,0.8V22h-2l-1,1v2.2c0,0-1.7,3.2-6,2.4c0,0-1.9-0.6-1.8-2.5l-0.7,0.6c0,0-0.3,0-0.4,0
			c-0.3,0-0.6,0.1-0.9,0.1c-0.7,0.2-1.7,0.6-1.9,1.4c0,0.1,0,0.3,0,0.4c0,0.6,0.2,1.3,0.5,1.8c0.3,0.6,0,1-0.4,1.5
			c-0.4,0.5-0.7,1.2-0.8,1.9c0,0.3,0,0.6,0.1,0.8c0.1,0.1,0.2,0.3,0.2,0.4c0,0.1,0,0.2-0.1,0.3c-0.4,0.7-1,1.1-1.5,1.6
			c-1.8,1.6-4.3,1-5.4-1.1c-1.7-3.3-0.3-7.2,1.6-10s2.4-5.3,2.1-6.3c0,0,4.8-1,6.4-5.1l1-0.3l0.6-0.6L32.5,12.5z"/>
		<polyline class="st0" points="32.6,13.2 39.1,13.2 39.1,13.7 39.1,16.2 38.1,16.1 38.1,18.1 32.6,18.1 		"/>
		<polyline class="st0" points="34.3,13.2 36,11.2 36.7,11.2 38.2,11.2 38.8,11.2 38.8,13.1 		"/>
		<path class="st0" d="M28.7,22.9c0,0-1.6-1.6-4.2-1.2S20.8,25,20.8,25c-1.6-6.7-7.1-6.5-7.2-6.5"/>
		<path class="st0" d="M23.9,22c0,0-1.1,3.3,1.8,4.3c0,0-3.4-0.1-3.2-3.6"/>
		<polyline class="st0" points="22.5,18.3 22.5,19 29.7,19 29.7,13.2 22.5,13.2 22.5,13.9 		"/>
		<path class="st0" d="M22.5,13.9v4.4c-0.8-0.1-1.4-1-1.4-2.2C21.1,14.9,21.7,14,22.5,13.9z"/>
		<line class="st0" x1="32.6" y1="16.1" x2="38.1" y2="16.1"/>
		<line class="st0" x1="29.8" y1="15.6" x2="32.3" y2="15.6"/>
		<path class="st0" d="M19.2,14.5L18.3,14l-0.6,0l-0.3,0.7c0,0-2.2-0.8-3.4-0.5L14,14.6c0,0,2.3-0.1,2.7,1.3c0,0-0.2,0.8-0.8,0.9
			s-0.3,0.8-0.3,0.8"/>
		<circle class="st1" cx="21.2" cy="22.6" r="0.3"/>
		<circle class="st1" cx="28.2" cy="21.6" r="0.3"/>
		<circle class="st1" cx="15.2" cy="20.6" r="0.3"/>
		<circle class="st1" cx="10.2" cy="32.6" r="0.3"/>
		<circle class="st1" cx="11.8" cy="26" r="0.3"/>
		<polyline class="st0" points="28.6,12.4 27.9,11.9 21.7,11.9 21.1,11.4 19.6,11.4 19.2,12.3 19.8,13.4 		"/>
	</g>
</g>
</svg>
